<?xml version="1.0" encoding="utf-8"?>
<svg width="200" height="200" xmlns="http://www.w3.org/2000/svg">
  <defs>
    <path d="M4.883.09v1.08a1 1 0 01-1 1H1a1 1 0 01-1-1V.09h4.883z" id="a"/>
    <path d="M4.883.09v1.08a1 1 0 01-1 1H1a1 1 0 01-1-1V.09h4.883z" id="b"/>
  </defs>
  <g fill="none" fill-rule="evenodd">
    <path fill="#FFF" d="M99 52h84v34H99z"/>
    <path d="M23 163c-7.398 0-13.843-4.027-17.303-10A19.886 19.886 0 003 163c0 11.046 8.954 20 20 20h20v-20H23z" fill="#3ECC5F"/>
    <path d="M112.98 57.376L183 53V43c0-11.046-8.954-20-20-20H73l-2.5-4.33c-1.112-1.925-3.889-1.925-5 0L63 23l-2.5-4.33c-1.111-1.925-3.889-1.925-5 0L53 23l-2.5-4.33c-1.111-1.925-3.889-1.925-5 0L43 23c-.022 0-.042.003-.065.003l-4.142-4.141c-1.57-1.571-4.252-.853-4.828 1.294l-1.369 5.104-5.192-1.392c-2.148-.575-4.111 1.389-3.535 3.536l1.39 5.193-5.102 1.367c-2.148.576-2.867 3.259-1.296 4.83l4.142 4.142c0 .021-.003.042-.003.064l-4.33 2.5c-1.925 1.111-1.925 3.889 0 5L23 53l-4.33 2.5c-1.925 1.111-1.925 3.889 0 5L23 63l-4.33 2.5c-1.925 1.111-1.925 3.889 0 5L23 73l-4.33 2.5c-1.925 1.111-1.925 3.889 0 5L23 83l-4.33 2.5c-1.925 1.111-1.925 3.889 0 5L23 93l-4.33 2.5c-1.925 1.111-1.925 3.889 0 5L23 103l-4.33 2.5c-1.925 1.111-1.925 3.889 0 5L23 113l-4.33 2.5c-1.925 1.111-1.925 3.889 0 5L23 123l-4.33 2.5c-1.925 1.111-1.925 3.889 0 5L23 133l-4.33 2.5c-1.925 1.111-1.925 3.889 0 5L23 143l-4.33 2.5c-1.925 1.111-1.925 3.889 0 5L23 153l-4.33 2.5c-1.925 1.111-1.925 3.889 0 5L23 163c0 11.046 8.954 20 20 20h120c11.046 0 20-8.954 20-20V83l-70.02-4.376A10.645 10.645 0 01103 68c0-5.621 4.37-10.273 9.98-10.624" fill="#3ECC5F"/>
    <path fill="#3ECC5F" d="M143 183h30v-40h-30z"/>
    <path d="M193 158c-.219 0-.428.037-.639.064-.038-.15-.074-.301-.116-.451A5 5 0 00190.32 148a4.96 4.96 0 00-3.016 1.036 26.531 26.531 0 00-.335-.336 4.955 4.955 0 001.011-2.987 5 5 0 00-9.599-1.959c-.148-.042-.297-.077-.445-.115.027-.211.064-.42.064-.639a5 5 0 00-5-5 5 5 0 00-5 5c0 .219.037.428.064.639-.148.038-.297.073-.445.115a4.998 4.998 0 00-9.599 1.959c0 1.125.384 2.151 1.011 2.987-3.717 3.632-6.031 8.693-6.031 14.3 0 11.046 8.954 20 20 20 9.339 0 17.16-6.41 19.361-15.064.211.027.42.064.639.064a5 5 0 005-5 5 5 0 00-5-5" fill="#44D860"/>
    <path fill="#3ECC5F" d="M153 123h30v-20h-30z"/>
    <path d="M193 115.5a2.5 2.5 0 100-5c-.109 0-.214.019-.319.032-.02-.075-.037-.15-.058-.225a2.501 2.501 0 00-.963-4.807c-.569 0-1.088.197-1.508.518a6.653 6.653 0 00-.168-.168c.314-.417.506-.931.506-1.494a2.5 2.5 0 00-4.8-.979A9.987 9.987 0 00183 103c-5.522 0-10 4.478-10 10s4.478 10 10 10c.934 0 1.833-.138 2.69-.377a2.5 2.5 0 004.8-.979c0-.563-.192-1.077-.506-1.494.057-.055.113-.111.168-.168.42.321.939.518 1.508.518a2.5 2.5 0 00.963-4.807c.021-.074.038-.15.058-.225.105.013.21.032.319.032" fill="#44D860"/>
    <path d="M63 55.5a2.5 2.5 0 01-2.5-2.5c0-4.136-3.364-7.5-7.5-7.5s-7.5 3.364-7.5 7.5a2.5 2.5 0 11-5 0c0-6.893 5.607-12.5 12.5-12.5S65.5 46.107 65.5 53a2.5 2.5 0 01-2.5 2.5" fill="#000"/>
    <path d="M103 183h60c11.046 0 20-8.954 20-20V93h-60c-11.046 0-20 8.954-20 20v70z" fill="#FFFF50"/>
    <path d="M168.02 124h-50.04a1 1 0 110-2h50.04a1 1 0 110 2m0 20h-50.04a1 1 0 110-2h50.04a1 1 0 110 2m0 20h-50.04a1 1 0 110-2h50.04a1 1 0 110 2m0-49.814h-50.04a1 1 0 110-2h50.04a1 1 0 110 2m0 19.814h-50.04a1 1 0 110-2h50.04a1 1 0 110 2m0 20h-50.04a1 1 0 110-2h50.04a1 1 0 110 2M183 61.611c-.012 0-.022-.006-.034-.005-3.09.105-4.552 3.196-5.842 5.923-1.346 2.85-2.387 4.703-4.093 4.647-1.889-.068-2.969-2.202-4.113-4.46-1.314-2.594-2.814-5.536-5.963-5.426-3.046.104-4.513 2.794-5.807 5.167-1.377 2.528-2.314 4.065-4.121 3.994-1.927-.07-2.951-1.805-4.136-3.813-1.321-2.236-2.848-4.75-5.936-4.664-2.994.103-4.465 2.385-5.763 4.4-1.373 2.13-2.335 3.428-4.165 3.351-1.973-.07-2.992-1.51-4.171-3.177-1.324-1.873-2.816-3.993-5.895-3.89-2.928.1-4.399 1.97-5.696 3.618-1.232 1.564-2.194 2.802-4.229 2.724a1 1 0 00-.072 2c3.017.101 4.545-1.8 5.872-3.487 1.177-1.496 2.193-2.787 4.193-2.855 1.926-.082 2.829 1.115 4.195 3.045 1.297 1.834 2.769 3.914 5.731 4.021 3.103.104 4.596-2.215 5.918-4.267 1.182-1.834 2.202-3.417 4.15-3.484 1.793-.067 2.769 1.35 4.145 3.681 1.297 2.197 2.766 4.686 5.787 4.796 3.125.108 4.634-2.62 5.949-5.035 1.139-2.088 2.214-4.06 4.119-4.126 1.793-.042 2.728 1.595 4.111 4.33 1.292 2.553 2.757 5.445 5.825 5.556l.169.003c3.064 0 4.518-3.075 5.805-5.794 1.139-2.41 2.217-4.68 4.067-4.773v-2z" fill="#000"/>
    <path fill="#3ECC5F" d="M83 183h40v-40H83z"/>
    <path d="M143 158c-.219 0-.428.037-.639.064-.038-.15-.074-.301-.116-.451A5 5 0 00140.32 148a4.96 4.96 0 00-3.016 1.036 26.531 26.531 0 00-.335-.336 4.955 4.955 0 001.011-2.987 5 5 0 00-9.599-1.959c-.148-.042-.297-.077-.445-.115.027-.211.064-.42.064-.639a5 5 0 00-5-5 5 5 0 00-5 5c0 .219.037.428.064.639-.148.038-.297.073-.445.115a4.998 4.998 0 00-9.599 1.959c0 1.125.384 2.151 1.011 2.987-3.717 3.632-6.031 8.693-6.031 14.3 0 11.046 8.954 20 20 20 9.339 0 17.16-6.41 19.361-15.064.211.027.42.064.639.064a5 5 0 005-5 5 5 0 00-5-5" fill="#44D860"/>
    <path fill="#3ECC5F" d="M83 123h40v-20H83z"/>
    <path d="M143 41.75c-.16 0-.33-.02-.49-.05a2.52 2.52 0 01-.47-.14c-.15-.06-.29-.14-.431-.23-.13-.09-.259-.2-.38-.31-.109-.12-.219-.24-.309-.38s-.17-.28-.231-.43a2.619 2.619 0 01-.189-.96c0-.16.02-.33.05-.49.03-.16.08-.31.139-.47.061-.15.141-.29.231-.43.09-.13.2-.26.309-.38.121-.11.25-.22.38-.31.141-.09.281-.17.431-.23.149-.06.31-.11.47-.14.32-.07.65-.07.98 0 .159.03.32.08.47.14.149.06.29.14.43.23.13.09.259.2.38.31.11.12.22.25.31.38.09.14.17.28.23.43.06.16.11.31.14.47.029.16.05.33.05.49 0 .66-.271 1.31-.73 1.77-.121.11-.25.22-.38.31-.14.09-.281.17-.43.23a2.565 2.565 0 01-.96.19m20-1.25c-.66 0-1.3-.27-1.771-.73a3.802 3.802 0 01-.309-.38c-.09-.14-.17-.28-.231-.43a2.619 2.619 0 01-.189-.96c0-.66.27-1.3.729-1.77.121-.11.25-.22.38-.31.141-.09.281-.17.431-.23.149-.06.31-.11.47-.14.32-.07.66-.07.98 0 .159.03.32.08.47.14.149.06.29.14.43.23.13.09.259.2.38.31.459.47.73 1.11.73 1.77 0 .16-.021.33-.05.49-.03.16-.08.32-.14.47-.07.15-.14.29-.23.43-.09.13-.2.26-.31.38-.121.11-.25.22-.38.31-.14.09-.281.17-.43.23a2.565 2.565 0 01-.96.19" fill="#000"/>
    <g transform="matrix(0.571361, 0, 0, 0.571361, 123.043358, 77.141907)">
      <path d="M32.6 67.4H3.044l.017.433.05.833.022.356.08.962.02.215.115 1.065a1.16 1.16 0 0 0 .011.103l.15 1.144c.342 2.37.85 4.704 1.53 6.998l.01.03.353 1.14.02.063.325.968.086.244.304.837.143.378.27.7.213.52.226.54.3.658.175.4.368.787.122.252.443.895.07.137.54 1.025.115.2L34.447 74c-.996-2.1-1.616-4.332-1.846-6.6zM4.44 80.962l.008.027.954-.3z" fill="#93d500" style="paint-order: stroke; stroke: rgb(255, 255, 255); stroke-width: 7.00083px;"/>
      <path d="M39.865 80.977l-20.9 20.89.323.298.893.792.71.602.192.16.812.654.105.083.894.686a.23.23 0 0 1 .034.025l3.895 2.633.14.085.767.453.47.268.446.25.814.44.113.06 2.303 1.118 11.247-27.32c-1.142-.61-2.238-1.334-3.27-2.18z" fill="#4d5a31" style="paint-order: stroke; stroke: rgb(255, 255, 255); stroke-width: 7.00083px;"/>
      <path d="M37.697 78.904l-.65-.765-.54-.697-.578-.818-.54-.843-25.276 15.225 1.302 2.045.105.154.006.01 1.358 1.914.03.04.03.04.614.8.737.915.158.19.604.713.266.302.524.6.297.322.135.146.4.42.16.164.7.716 20.85-20.85-.683-.73z" fill="#6ba43a" style="paint-order: stroke; stroke: rgb(255, 255, 255); stroke-width: 7.00083px;"/>
      <path d="M65.334 80.966l-.697.54.052.087 15.202 25.235 2.08-1.432c1.47-1.085 2.895-2.26 4.267-3.527l-20.822-20.82z" fill="#4d5a31" style="paint-order: stroke; stroke: rgb(255, 255, 255); stroke-width: 7.00083px;"/>
      <g fill="#93d500">
        <path d="M77.96 108.035l-.006.003.015-.01zm.044-.023l.198-.112-.198.112zm.198-.112l-.004-.007zm-.268.15h.002z" style="paint-order: stroke; stroke: rgb(255, 255, 255); stroke-width: 7.00083px;"/>
        <path d="M77.942 108.047l-.006.003.006-.003z" style="paint-order: stroke; stroke: rgb(255, 255, 255); stroke-width: 7.00083px;"/>
        <path d="M77.682 107.036l-14.706-24.4-.874.487-.896.45a20.15 20.15 0 0 1-8.632 1.953 20.1 20.1 0 0 1-5.742-.838l-.945-.332-.944-.335-11.226 27.265.082.03.086.033h.001l.022.01 2.155.825a49.94 49.94 0 0 0 10.12 2.422 17.83 17.83 0 0 1 .404.054l1.222.133.198.017.98.082.333.02.858.05.526.02.682.024 1.218.015a49.76 49.76 0 0 0 8.233-.686l.138-.02.864-.157.5-.095.505-.106.842-.185.152-.035a49.85 49.85 0 0 0 11.897-4.436l.001-.001.73-.4 1.483-.836-.024-.07.037.063.048-.028.195-.117zM39.876 49.852l.697-.54-.052-.087L25.32 24l-2.085 1.436c-1.47 1.082-2.893 2.257-4.262 3.522L39.795 49.77z" style="paint-order: stroke; stroke: rgb(255, 255, 255); stroke-width: 7.00083px;"/>
      </g>
      <path d="M17.53 30.334l-1.384 1.445c-1.538 1.665-2.944 3.4-4.212 5.22l-.182.26-.423.625-.43.656-.156.24a49.48 49.48 0 0 0-7.7 24.627l-.027 1-.017 1h29.488l.048-1 .055-1a20.01 20.01 0 0 1 4.447-10.74c.2-.256.447-.496.672-.743s.432-.504.67-.742zm60.843-7.32l-.122-.073-.783-.465-.457-.26-.46-.256-.8-.432-.126-.066c-1.73-.904-3.505-1.7-5.318-2.4l-.14-.054-1.2-.433c-3.22-1.125-6.552-1.914-9.936-2.358l-.415-.056-.415-.046-.8-.087-.224-.02-.953-.08-1.2-.073-.434-.017v29.56c1.517.157 3.02.48 4.478.975L80.83 24.63a48.97 48.97 0 0 0-2.464-1.614z" fill="#4d5a31" style="paint-order: stroke; stroke: rgb(255, 255, 255); stroke-width: 7.00083px;"/>
      <path d="M27.53 23.78l-.516-.857zm-.53-.86l.003.005zm24.606-7.095l-1 .02c-2.086.084-4.168.297-6.233.643l-.136.023-.865.157-.5.094-.508.106-.84.184-.153.034a49.89 49.89 0 0 0-11.898 4.438l-2.47 1.394.003.005 15.22 25.27.874-.487a19.71 19.71 0 0 1 .895-.451 20.05 20.05 0 0 1 6.601-1.85l1-.08 1-.034.001-29.487c-.334-.001-.667.013-1 .02z" fill="#6ba43a" style="paint-order: stroke; stroke: rgb(255, 255, 255); stroke-width: 7.00083px;"/>
      <path d="M102.15 62.97l-.048-.795-.026-.397-.077-.934-.02-.242-.11-1.043-.01-.084-.005-.04-.15-1.124c-.001-.01-.002-.025-.005-.035a49.56 49.56 0 0 0-1.524-6.972l-.014-.044-.328-1.063-.045-.14-.32-.954-.09-.258-.3-.823-.15-.39-.265-.678-.218-.534-.22-.526-.294-.67-.17-.378-.373-.797-.116-.242-.448-.906-.065-.125-.52-1c-.007-.01-.012-.024-.02-.035-.86-1.58-1.802-3.108-2.822-4.578L71.632 58.93a20.5 20.5 0 0 1 .974 4.477h29.56l-.016-.437z" fill="#4d5a31" style="paint-order: stroke; stroke: rgb(255, 255, 255); stroke-width: 7.00083px;"/>
      <path d="M72.722 65.408l-.048 1-.055 1c-.38 3.84-1.863 7.6-4.446 10.74-.2.256-.447.496-.672.743s-.432.504-.67.742l20.85 20.85c.237-.237.46-.482.69-.723l.69-.723c1.543-1.67 2.953-3.42 4.224-5.236l.148-.214.458-.673.395-.605.2-.295c4.782-7.51 7.34-16.02 7.685-24.607l.027-1 .017-1H72.722z" fill="#6ba43a" style="paint-order: stroke; stroke: rgb(255, 255, 255); stroke-width: 7.00083px;"/>
      <path d="M110.967 7.046c-5.395-5.395-14.142-5.395-19.536 0-4.304 4.303-5.164 10.736-2.6 15.902L58.74 53.04c-5.166-2.562-11.6-1.703-15.903 2.6a13.82 13.82 0 0 0 0 19.537 13.82 13.82 0 0 0 19.538-.001c4.303-4.303 5.162-10.736 2.6-15.903l30.09-30.09c5.167 2.562 11.6 1.703 15.902-2.6 5.396-5.393 5.396-14.14.001-19.535z" style="fill-rule: nonzero; fill: rgb(66, 65, 67); stroke-miterlimit: 12; stroke-dashoffset: 7px; paint-order: stroke; stroke: rgb(255, 255, 255); stroke-width: 7.00083px;"/>
      <path d="M 122.725 -4.709 C 127.311 0.904 131.641 10.318 131.641 16.817 C 131.641 23.316 127.31 32.728 122.723 38.341 C 118.295 42.106 111.062 46.087 105.885 46.888 C 100.67 47.696 102.586 47.159 100.727 47.035 L 82.678 65.084 C 82.8 66.881 83.488 64.878 82.68 70.093 C 81.879 75.27 77.894 82.509 74.129 86.936 C 68.516 91.52 59.105 95.848 52.607 95.848 C 46.109 95.848 36.688 91.513 31.076 86.93 C 26.492 81.317 22.166 71.906 22.166 65.409 C 22.166 58.911 26.497 49.495 31.08 43.883 C 35.508 40.117 42.744 36.136 47.92 35.335 C 53.136 34.527 51.219 35.064 53.078 35.188 L 71.127 17.138 C 71.005 15.341 70.316 17.344 71.125 12.128 C 71.927 6.95 75.908 -0.284 79.674 -4.711 C 85.287 -9.297 94.7 -13.627 101.199 -13.627 C 107.697 -13.627 117.111 -9.297 122.724 -4.711 L 124.337 -3.393 L 125.183 -1.701 Z" style="paint-order: stroke; stroke: rgb(255, 255, 255); stroke-width: 0px;"/>
    </g>
    <path d="M133 115.5a2.5 2.5 0 100-5c-.109 0-.214.019-.319.032-.02-.075-.037-.15-.058-.225a2.501 2.501 0 00-.963-4.807c-.569 0-1.088.197-1.508.518a6.653 6.653 0 00-.168-.168c.314-.417.506-.931.506-1.494a2.5 2.5 0 00-4.8-.979A9.987 9.987 0 00123 103c-5.522 0-10 4.478-10 10s4.478 10 10 10c.934 0 1.833-.138 2.69-.377a2.5 2.5 0 004.8-.979c0-.563-.192-1.077-.506-1.494.057-.055.113-.111.168-.168.42.321.939.518 1.508.518a2.5 2.5 0 00.963-4.807c.021-.074.038-.15.058-.225.105.013.21.032.319.032" fill="#44D860"/>
  </g>
</svg>